<svg width="32" height="32" viewBox="0 0 32 32" fill="none" xmlns="http://www.w3.org/2000/svg">
<path d="M27.1843 1.04688H4.81531C2.7595 1.04688 1.08731 2.72381 1.08731 4.78512V27.2146C1.08731 29.2761 2.75956 30.9531 4.81531 30.9531H27.1843C29.2404 30.9531 30.9127 29.2761 30.9127 27.2146V4.78519C30.9127 2.72381 29.2405 1.04688 27.1843 1.04688Z" fill="#1B80E4"/>
<path d="M26.2524 16H21.5922V12.2617C21.5922 11.2298 22.4275 11.3273 23.4562 11.3273H25.3206V6.65425H21.5922C18.5034 6.65425 16.0001 9.16438 16.0001 12.2617V16H12.272V20.6729H16.0001V30.9531H21.5922V20.6729H24.3883L26.2524 16Z" fill="#FCFCFC"/>
</svg>
