<svg width="32" height="32" viewBox="0 0 32 32" fill="none" xmlns="http://www.w3.org/2000/svg">
<path d="M2.65002 9.11876C3.61877 7.10001 4.98752 5.39376 6.71252 3.97501C9.05002 2.04376 11.7313 0.881256 14.7375 0.525006C18.2688 0.106256 21.5875 0.775006 24.6563 2.61251C25.4188 3.06876 26.1313 3.58751 26.8125 4.15001C26.9813 4.28751 26.9625 4.36876 26.8188 4.50626C25.425 5.89376 24.0313 7.28126 22.65 8.68126C22.4875 8.84376 22.4 8.83126 22.225 8.70001C18.175 5.58126 12.2688 6.42501 9.25002 10.55C8.71877 11.275 8.28752 12.0563 7.98752 12.9063C7.96252 12.9813 7.91252 13.05 7.87502 13.125C7.06877 12.5125 6.25627 11.9 5.45627 11.2813C4.51877 10.5625 3.58127 9.84376 2.65002 9.11876Z" fill="#E94335"/>
<path d="M7.87499 18.9875C8.14374 19.5813 8.36874 20.2 8.70624 20.7563C10.125 23.0813 12.15 24.575 14.8187 25.1063C17.225 25.5875 19.5375 25.2625 21.6937 24.0563C21.7687 24.0188 21.8437 23.9813 21.9125 23.9438C21.95 23.9813 21.9812 24.025 22.0187 24.0563C23.6312 25.3063 25.25 26.5563 26.8625 27.8063C26.0875 28.575 25.2062 29.1938 24.2687 29.7313C21.55 31.2813 18.6062 31.9063 15.5062 31.6688C11.6437 31.3688 8.31249 29.8438 5.56249 27.0938C4.35624 25.8875 3.36249 24.525 2.64374 22.9688C3.31249 22.4563 3.98124 21.95 4.64999 21.4375C5.72499 20.6188 6.79999 19.8063 7.87499 18.9875Z" fill="#34A853"/>
<path d="M26.8688 27.8063C25.2563 26.5563 23.6375 25.3063 22.025 24.0563C21.9875 24.025 21.95 23.9813 21.9188 23.9438C22.475 23.5125 23.0438 23.0938 23.5 22.5438C24.2625 21.6313 24.7688 20.6 25.0313 19.4438C25.0625 19.3 25.0375 19.25 24.8938 19.2563C24.8188 19.2625 24.75 19.2563 24.675 19.2563C22.125 19.2563 19.5688 19.25 17.0188 19.2625C16.7375 19.2625 16.675 19.1875 16.6813 18.9188C16.6938 17.1063 16.6938 15.2938 16.6813 13.4813C16.6813 13.25 16.7438 13.1875 16.975 13.1875C21.65 13.1938 26.325 13.1938 31.0063 13.1875C31.2063 13.1875 31.2875 13.2375 31.3375 13.45C31.7188 15.1688 31.6938 16.8938 31.4625 18.6313C31.275 20.0188 30.9375 21.3625 30.4188 22.6625C29.65 24.5813 28.5188 26.2563 27.0313 27.6938C26.975 27.7375 26.9188 27.7688 26.8688 27.8063Z" fill="#4285F3"/>
<path d="M7.87501 18.9875C6.80001 19.8063 5.72501 20.6188 4.65001 21.4375C3.98126 21.9438 3.31251 22.4563 2.64376 22.9688C2.12501 22.0063 1.78751 20.9875 1.51251 19.9375C0.987513 17.9063 0.906262 15.8438 1.19376 13.775C1.41876 12.15 1.88751 10.5875 2.64376 9.12501C3.58126 9.84376 4.51251 10.5688 5.45001 11.2875C6.25626 11.9063 7.06251 12.5188 7.86876 13.1313C7.73126 13.8 7.53751 14.4563 7.47501 15.1438C7.36251 16.3938 7.48126 17.6125 7.83751 18.8125C7.86251 18.8625 7.86876 18.925 7.87501 18.9875Z" fill="#FABB06"/>
</svg>
